<svg width="594" height="561" viewBox="0 0 594 561" fill="none" xmlns="http://www.w3.org/2000/svg">
<path d="M296.66 548.514C433.111 548.514 543.727 532.997 543.727 513.856C543.727 494.715 433.111 479.198 296.66 479.198C160.209 479.198 49.5938 494.715 49.5938 513.856C49.5938 532.997 160.209 548.514 296.66 548.514Z" fill="#EBEBEB"/>
<path d="M0 459.125L74.1651 458.783L148.33 458.654L296.66 458.412L444.991 458.654L519.156 458.783L593.321 459.125L519.156 459.481L444.991 459.595L296.66 459.838L148.33 459.595L74.1651 459.481L0 459.125Z" fill="#263238"/>
<path d="M151.961 217.445H82.8359V406.247H151.961V217.445Z" fill="#529799"/>
<path opacity="0.2" d="M151.961 217.445H82.8359V406.247H151.961V217.445Z" fill="black"/>
<path d="M510.5 217.445H441.375V406.247H510.5V217.445Z" fill="#529799"/>
<path opacity="0.2" d="M510.5 217.445H441.375V406.247H510.5V217.445Z" fill="black"/>
<path d="M441.388 84.5439H151.945V406.247H441.388V84.5439Z" fill="#529799"/>
<path opacity="0.2" d="M441.388 84.5439H151.945V406.247H441.388V84.5439Z" fill="black"/>
<g opacity="0.2">
<path d="M443.058 217.445H441.414V406.232H443.058V217.445Z" fill="black"/>
<path d="M152.769 217.445H151.125V406.232H152.769V217.445Z" fill="black"/>
<path d="M443.088 351.501H151.125V292.892H443.088V351.501ZM152.851 349.69H441.389V294.645H152.851V349.69Z" fill="black"/>
</g>
<g opacity="0.2">
<path d="M169.97 187.777C169.689 187.809 169.428 187.948 169.239 188.168C169.05 188.387 168.945 188.672 168.945 188.967C168.945 189.262 169.05 189.547 169.239 189.766C169.428 189.986 169.689 190.125 169.97 190.158C170.252 190.125 170.513 189.986 170.702 189.766C170.891 189.547 170.996 189.262 170.996 188.967C170.996 188.672 170.891 188.387 170.702 188.168C170.513 187.948 170.252 187.809 169.97 187.777Z" fill="black"/>
<path d="M171.931 333.552C171.65 333.584 171.389 333.723 171.2 333.943C171.011 334.162 170.906 334.447 170.906 334.742C170.906 335.037 171.011 335.322 171.2 335.541C171.389 335.761 171.65 335.9 171.931 335.932C172.213 335.9 172.474 335.761 172.663 335.541C172.852 335.322 172.957 335.037 172.957 334.742C172.957 334.447 172.852 334.162 172.663 333.943C172.474 333.723 172.213 333.584 171.931 333.552Z" fill="black"/>
<path d="M250.164 310.784C250.164 310.655 250.041 310.541 249.986 310.427C249.94 310.347 249.875 310.282 249.797 310.236C249.719 310.19 249.631 310.166 249.541 310.166C249.452 310.166 249.364 310.19 249.286 310.236C249.208 310.282 249.142 310.347 249.096 310.427C249.029 310.541 248.969 310.661 248.918 310.784C248.261 312.195 250.808 312.195 250.164 310.784Z" fill="black"/>
<path d="M135.895 336.545C135.895 336.431 135.785 336.303 135.716 336.189C135.67 336.109 135.605 336.043 135.527 335.998C135.449 335.952 135.361 335.928 135.271 335.928C135.182 335.928 135.094 335.952 135.016 335.998C134.938 336.043 134.873 336.109 134.826 336.189C134.758 336.303 134.703 336.431 134.648 336.545C134.004 337.957 136.552 337.957 135.895 336.545Z" fill="black"/>
<path d="M179.818 195.048C179.585 195.048 179.363 195.144 179.198 195.315C179.034 195.486 178.941 195.718 178.941 195.96C178.941 196.202 179.034 196.434 179.198 196.605C179.363 196.776 179.585 196.872 179.818 196.872C180.05 196.872 180.273 196.776 180.438 196.605C180.602 196.434 180.695 196.202 180.695 195.96C180.695 195.718 180.602 195.486 180.438 195.315C180.273 195.144 180.05 195.048 179.818 195.048Z" fill="black"/>
<path d="M118.884 287.445C118.673 287.473 118.478 287.58 118.336 287.747C118.195 287.914 118.117 288.128 118.117 288.351C118.117 288.573 118.195 288.788 118.336 288.954C118.478 289.121 118.673 289.228 118.884 289.256C119.096 289.228 119.291 289.121 119.432 288.954C119.574 288.788 119.652 288.573 119.652 288.351C119.652 288.128 119.574 287.914 119.432 287.747C119.291 287.58 119.096 287.473 118.884 287.445Z" fill="black"/>
<path d="M233.658 144.265C233.43 144.031 233.122 143.9 232.802 143.9C232.481 143.9 232.174 144.031 231.946 144.265C231.738 144.49 231.591 144.768 231.519 145.071C231.447 145.373 231.452 145.69 231.535 145.99C231.636 146.256 231.811 146.484 232.039 146.645C232.266 146.806 232.534 146.892 232.809 146.892C233.083 146.892 233.352 146.806 233.579 146.645C233.806 146.484 233.981 146.256 234.082 145.99C234.165 145.689 234.169 145.371 234.094 145.068C234.019 144.765 233.869 144.488 233.658 144.265Z" fill="black"/>
<path d="M181.518 326.808C181.289 326.574 180.982 326.443 180.662 326.443C180.341 326.443 180.034 326.574 179.805 326.808C179.598 327.03 179.451 327.305 179.378 327.606C179.306 327.906 179.312 328.221 179.395 328.519C179.498 328.78 179.673 329.004 179.899 329.161C180.125 329.319 180.39 329.403 180.662 329.403C180.933 329.403 181.199 329.319 181.424 329.161C181.65 329.004 181.825 328.78 181.928 328.519C182.014 328.222 182.021 327.906 181.949 327.605C181.877 327.304 181.728 327.028 181.518 326.808Z" fill="black"/>
<path d="M421.994 339.097C422.299 339.097 422.592 338.971 422.808 338.747C423.023 338.522 423.145 338.217 423.145 337.9C423.145 337.582 423.023 337.278 422.808 337.053C422.592 336.828 422.299 336.702 421.994 336.702C421.689 336.702 421.396 336.828 421.181 337.053C420.965 337.278 420.844 337.582 420.844 337.9C420.844 338.217 420.965 338.522 421.181 338.747C421.396 338.971 421.689 339.097 421.994 339.097Z" fill="black"/>
<path d="M352.502 180.05C352.783 180.017 353.044 179.878 353.233 179.658C353.422 179.439 353.527 179.154 353.527 178.859C353.527 178.564 353.422 178.279 353.233 178.06C353.044 177.84 352.783 177.701 352.502 177.669C352.22 177.701 351.96 177.84 351.77 178.06C351.581 178.279 351.477 178.564 351.477 178.859C351.477 179.154 351.581 179.439 351.77 179.658C351.96 179.878 352.22 180.017 352.502 180.05Z" fill="black"/>
<path d="M459.073 327.849C459.073 327.963 459.182 328.091 459.251 328.205C459.297 328.285 459.362 328.351 459.44 328.397C459.518 328.442 459.606 328.466 459.696 328.466C459.785 328.466 459.873 328.442 459.951 328.397C460.029 328.351 460.094 328.285 460.141 328.205C460.209 328.091 460.264 327.963 460.319 327.849C461.017 326.437 458.429 326.437 459.073 327.849Z" fill="black"/>
<path d="M317.577 256.066C317.805 256.301 318.113 256.432 318.433 256.432C318.753 256.432 319.061 256.301 319.289 256.066C319.499 255.843 319.648 255.565 319.72 255.262C319.792 254.959 319.785 254.641 319.7 254.341C319.597 254.08 319.421 253.856 319.196 253.699C318.97 253.541 318.705 253.457 318.433 253.457C318.161 253.457 317.896 253.541 317.67 253.699C317.445 253.856 317.269 254.08 317.166 254.341C317.085 254.641 317.08 254.958 317.152 255.26C317.224 255.563 317.371 255.841 317.577 256.066Z" fill="black"/>
</g>
<g opacity="0.2">
<path d="M152.852 351.501C152.852 351.501 225.743 366.299 297.073 366.299C368.403 366.299 441.377 351.501 441.377 351.501H152.852Z" fill="black"/>
</g>
<path d="M510.487 389.638H82.8359V406.232H510.487V389.638Z" fill="#37474F"/>
<path d="M175.42 406.247L157.848 443.699L140.193 481.351H124.812L130.524 443.699L136.208 406.247H175.42Z" fill="#37474F"/>
<path d="M136.207 406.247H175.433L164.764 428.958H132.77L136.207 406.247Z" fill="#263238"/>
<path d="M461.92 481.351H446.553L428.898 443.699L411.312 406.247H450.539L456.209 443.699L461.92 481.351Z" fill="#37474F"/>
<path d="M453.976 428.958H421.982L411.312 406.247H450.525L453.976 428.958Z" fill="#263238"/>
<path d="M465.535 325.311C464.275 321.362 397.122 228.993 392.534 227.225C392.014 226.983 361.991 249.223 361.991 249.223C360.759 250.948 303.7 238.388 303.7 238.388L303.125 310.042L407.066 307.747C407.066 307.747 421.104 316.301 433.951 323.33C441.854 327.607 448.853 331.313 450.853 331.884C456.085 333.252 466.809 329.232 465.535 325.311Z" fill="#AD6359"/>
<path d="M450.892 331.869C448.879 331.328 441.894 327.678 434.005 323.315C421.172 316.315 407.133 307.704 407.133 307.704L384 308.232L347.719 247.427C355.676 248.853 361.607 249.765 362.004 249.223C362.004 249.223 391.999 226.983 392.533 227.225C397.121 228.993 464.274 321.319 465.534 325.297C466.794 329.275 456.083 333.267 450.892 331.869Z" fill="white"/>
<path d="M466.138 325.425C464.769 321.376 397.37 229.079 392.658 227.254C390.878 226.541 376.223 235.993 361.992 249.223L405.56 308.731C405.56 308.731 445.745 330.9 451.114 332.326C456.482 333.751 467.467 329.474 466.138 325.425Z" fill="#529799"/>
<path d="M461.633 326.908C449.964 311.725 404.259 249.337 393.823 233.413C393.741 233.27 393.823 233.213 393.919 233.327C405.807 248.125 451.018 310.898 461.879 326.723C462.098 327.051 461.879 327.264 461.633 326.908Z" fill="#263238"/>
<path d="M443.581 328.861C442.283 327.173 441.335 325.224 440.795 323.136C440.255 321.048 440.136 318.867 440.445 316.729C440.979 312.876 442.916 309.385 445.855 306.977C445.951 306.977 446.074 307.077 445.992 307.162C443.435 310.018 441.837 313.66 441.437 317.542C441.037 321.423 441.857 325.335 443.773 328.69C443.795 328.717 443.806 328.751 443.803 328.786C443.801 328.821 443.785 328.853 443.759 328.875C443.734 328.898 443.701 328.909 443.667 328.907C443.634 328.904 443.603 328.888 443.581 328.861Z" fill="#263238"/>
<path d="M410.584 312.352C405.982 306.222 402.832 297.382 404.887 289.684C404.969 289.384 405.366 289.498 405.421 289.755C406.646 297.333 408.653 304.751 411.406 311.881C411.438 311.991 411.433 312.108 411.391 312.214C411.35 312.32 411.275 312.408 411.178 312.463C411.082 312.518 410.971 312.537 410.862 312.517C410.754 312.497 410.656 312.439 410.584 312.352Z" fill="#263238"/>
<path d="M415.819 315.716C411.217 309.586 408.067 300.747 410.121 293.048C410.203 292.749 410.601 292.863 410.642 293.12C411.88 300.695 413.886 308.112 416.627 315.246C416.672 315.356 416.676 315.479 416.639 315.592C416.602 315.705 416.526 315.8 416.426 315.859C416.325 315.917 416.208 315.935 416.096 315.908C415.984 315.882 415.885 315.814 415.819 315.716Z" fill="#263238"/>
<path d="M421.159 319.081C416.557 312.951 413.407 304.111 415.461 296.413C415.529 296.113 415.94 296.228 415.981 296.484C417.219 304.059 419.226 311.476 421.967 318.611C422.012 318.721 422.016 318.844 421.979 318.957C421.942 319.07 421.866 319.165 421.765 319.223C421.665 319.282 421.548 319.299 421.436 319.273C421.324 319.247 421.225 319.178 421.159 319.081Z" fill="#263238"/>
<path d="M426.445 322.446C421.83 316.315 418.693 307.476 420.748 299.763C420.748 299.478 421.227 299.592 421.268 299.849C422.5 307.425 424.506 314.843 427.253 321.975C427.298 322.085 427.302 322.208 427.265 322.322C427.228 322.435 427.152 322.529 427.052 322.588C426.952 322.646 426.835 322.664 426.723 322.638C426.611 322.611 426.512 322.543 426.445 322.446Z" fill="#263238"/>
<path d="M382.591 248.525C377.523 241.567 387.919 233.37 392.987 240.341C398.054 247.313 387.659 255.496 382.591 248.525Z" fill="#263238"/>
<path d="M407.969 324.213C409.667 317.598 408.544 310.442 408.257 303.712C408.237 303.565 408.185 303.424 408.104 303.302C408.024 303.179 407.916 303.077 407.791 303.005C407.666 302.933 407.527 302.893 407.384 302.887C407.241 302.881 407.099 302.91 406.969 302.971C406.95 302.947 406.926 302.928 406.898 302.915C406.871 302.901 406.842 302.894 406.812 302.894C406.781 302.894 406.752 302.901 406.725 302.915C406.697 302.928 406.673 302.947 406.654 302.971C401.528 307.749 397.697 313.846 395.546 320.649C394.369 324.641 394.82 330.515 399.655 331.67C404.134 332.71 406.969 328.077 407.969 324.213ZM403.244 328.405C396.327 332.91 396.848 322.902 397.834 319.993C398.503 318.131 399.29 316.316 400.189 314.562C402.11 310.961 404.203 307.464 406.462 304.083C406.462 307.405 406.627 310.698 406.695 314.063C406.777 317.955 407.065 325.924 403.244 328.405Z" fill="#263238"/>
<path d="M386.782 283.924C383.262 287.488 385.796 292.763 388.768 295.558C393.979 300.233 400.281 303.4 407.039 304.739C407.069 304.746 407.099 304.745 407.129 304.737C407.158 304.73 407.185 304.715 407.208 304.694C407.231 304.673 407.248 304.647 407.259 304.617C407.271 304.588 407.275 304.556 407.272 304.525C407.415 304.51 407.553 304.46 407.675 304.38C407.796 304.299 407.898 304.19 407.971 304.061C408.045 303.932 408.088 303.786 408.097 303.637C408.107 303.487 408.082 303.337 408.025 303.199C404.944 297.283 402.355 290.539 397.616 285.777C394.85 283.069 390.124 280.559 386.782 283.924ZM401.588 295.215C403.177 298.067 404.615 301.032 406.3 303.841C402.689 302.16 399.164 300.285 395.74 298.224C394.092 297.213 392.518 296.079 391.028 294.83C388.741 292.877 383.331 284.58 391.494 284.722C396 284.808 399.698 291.794 401.588 295.215Z" fill="#263238"/>
<path d="M300.55 216.419H253.901C253.901 216.419 205.101 192.011 165.793 201.805C120.732 213.082 114.966 271.991 148.645 292.82C191.322 319.224 381.234 314.105 381.234 314.105L340.146 241.681C340.146 241.681 276.992 227.838 219.728 229.848L300.536 241.254L300.55 216.419Z" fill="#263238"/>
<path d="M342.913 246.4C342.866 246.282 342.838 246.157 342.831 246.03L342.748 245.716C342.748 245.488 342.639 245.26 342.57 245.017C342.438 244.533 342.278 244.057 342.091 243.592C341.927 243.121 341.721 242.665 341.516 242.166C341.291 241.719 341.035 241.29 340.749 240.883C340.749 240.883 340.68 240.883 340.639 240.883C340.617 240.877 340.593 240.877 340.571 240.883C340.571 240.883 340.502 240.883 340.461 240.883C340.43 240.875 340.397 240.875 340.365 240.883C333.421 239.457 286.224 232.5 279.212 231.673C272.199 230.846 265.036 230.148 257.941 229.535C243.782 228.254 229.57 227.721 215.36 227.938C213.99 227.938 212.703 228.009 211.374 228.066C211.086 227.966 210.785 227.909 210.498 227.838C209.813 227.667 209.128 227.496 208.443 227.353C207.169 227.097 205.868 226.897 204.581 226.698C201.841 226.27 199.198 225.971 196.527 225.457C196.495 225.457 196.463 225.471 196.44 225.495C196.417 225.519 196.404 225.552 196.404 225.586C196.404 225.62 196.417 225.652 196.44 225.676C196.463 225.7 196.495 225.714 196.527 225.714C199.267 226.327 201.869 227.14 204.553 227.753C205.334 227.924 206.101 228.109 206.882 228.266C201.677 228.551 196.473 228.964 191.282 229.463C191.254 229.473 191.23 229.491 191.214 229.515C191.197 229.54 191.188 229.569 191.188 229.599C191.188 229.629 191.197 229.658 191.214 229.682C191.23 229.707 191.254 229.725 191.282 229.734C198.349 229.292 205.471 229.235 212.566 229.364C219.66 229.492 226.618 229.649 233.644 230.076C247.861 230.918 262.05 232.243 276.212 233.783C284.156 234.653 332.271 241.967 340.242 242.337H340.338C340.406 242.523 340.475 242.722 340.557 242.907C340.776 243.349 340.995 243.806 341.242 244.233C341.458 244.664 341.696 245.083 341.954 245.488C342.077 245.688 342.201 245.887 342.338 246.087L342.543 246.386C342.624 246.481 342.693 246.587 342.748 246.7C342.735 246.686 343.009 246.571 342.913 246.4Z" fill="#455A64"/>
<path d="M366.427 309.743C363.88 305.466 361.716 301.004 359.387 296.641C357.059 292.278 354.717 287.887 352.375 283.511C347.705 274.785 330.94 245.445 329.283 243.392C329.174 243.264 328.968 243.392 329.009 243.563C329.804 245.83 340.268 265.262 342.705 269.582C347.527 278.25 352.581 286.69 357.58 295.244C358.949 297.682 360.47 300.091 361.921 302.529C363.373 304.967 364.907 307.334 366.222 309.828C366.277 310.042 366.51 309.9 366.427 309.743Z" fill="#455A64"/>
<path d="M328.806 250.692C324.615 249.637 320.328 248.967 316.096 248.125C311.864 247.284 307.605 246.457 303.359 245.645C294.867 244 286.357 242.427 277.829 240.926C260.846 237.96 243.78 235.48 226.619 233.797C216.935 232.828 207.239 232.201 197.528 231.459C197.322 231.459 197.336 231.773 197.528 231.787C214.799 232.6 232.056 235.038 249.163 237.59C266.269 240.142 283.02 242.907 299.839 245.873C304.605 246.709 309.371 247.56 314.138 248.425C318.972 249.294 323.807 250.364 328.669 251.005C328.916 251.005 328.998 250.734 328.806 250.692Z" fill="#455A64"/>
<path d="M377.072 560.989C372.963 560.561 271.255 512.972 268.475 508.595C267.407 506.956 273.2 491.117 280.802 472.198C282.418 468.121 284.13 463.915 285.883 459.652C297.21 431.951 309.865 402.839 309.865 402.839L378.004 434.475L352.145 490.404L346.475 502.693C346.475 502.693 377.593 539.048 380.154 544.18C382.715 549.313 381.168 561.417 377.072 560.989Z" fill="#AD6359"/>
<path d="M377.071 560.989C372.962 560.561 271.253 512.972 268.473 508.596C267.186 506.585 276.006 483.632 285.813 459.652L352.075 490.404L346.405 502.693C346.405 502.693 377.523 539.048 380.084 544.18C382.645 549.313 381.166 561.417 377.071 560.989Z" fill="white"/>
<path d="M377.072 560.989C372.963 560.561 271.255 512.972 268.475 508.595C267.407 506.956 273.2 491.117 280.802 472.198L346.475 502.693C346.475 502.693 377.593 539.048 380.154 544.18C382.715 549.313 381.168 561.417 377.072 560.989Z" fill="#529799"/>
<path d="M377.466 556.07C360.606 547.659 291.81 515.368 274.525 508.396C274.388 508.396 274.347 508.396 274.525 508.496C291.07 517.221 360.099 548.928 377.384 556.37C377.685 556.512 377.795 556.256 377.466 556.07Z" fill="#263238"/>
<path d="M375.182 537.309C373.306 536.373 371.264 535.852 369.185 535.779C367.106 535.705 365.035 536.08 363.102 536.881C359.618 538.293 356.789 541.044 355.199 544.565C355.199 544.679 355.35 544.765 355.405 544.665C357.504 541.422 360.557 538.975 364.105 537.69C367.653 536.405 371.506 536.351 375.086 537.537C375.113 537.542 375.141 537.537 375.165 537.523C375.19 537.51 375.209 537.488 375.22 537.462C375.231 537.436 375.233 537.406 375.226 537.378C375.219 537.351 375.204 537.326 375.182 537.309Z" fill="#263238"/>
<path d="M352.253 507.555C345.473 504.262 336.475 503.064 329.722 506.899C329.462 507.042 329.722 507.427 329.928 507.412C337.298 506.948 344.695 507.307 351.993 508.482C352.107 508.505 352.225 508.483 352.324 508.42C352.423 508.357 352.497 508.258 352.529 508.142C352.562 508.026 352.551 507.901 352.5 507.793C352.449 507.684 352.361 507.599 352.253 507.555Z" fill="#263238"/>
<path d="M356.609 512.16C349.761 508.866 340.831 507.669 334.078 511.504C333.818 511.646 334.078 512.031 334.27 512.017C341.645 511.553 349.047 511.912 356.348 513.086C356.462 513.11 356.581 513.088 356.68 513.025C356.779 512.962 356.852 512.863 356.885 512.747C356.918 512.631 356.907 512.506 356.856 512.397C356.805 512.289 356.717 512.204 356.609 512.16Z" fill="#263238"/>
<path d="M360.949 516.765C354.169 513.471 345.17 512.274 338.418 516.095C338.158 516.251 338.418 516.636 338.61 516.622C345.985 516.158 353.386 516.517 360.688 517.691C360.802 517.715 360.921 517.693 361.02 517.63C361.119 517.567 361.192 517.468 361.225 517.352C361.257 517.236 361.247 517.111 361.196 517.002C361.145 516.894 361.057 516.809 360.949 516.765Z" fill="#263238"/>
<path d="M365.292 521.37C358.512 518.076 349.514 516.879 342.762 520.699C342.501 520.856 342.762 521.241 342.967 521.227C350.337 520.763 357.734 521.122 365.032 522.296C365.146 522.319 365.264 522.298 365.363 522.235C365.462 522.172 365.536 522.073 365.568 521.957C365.601 521.84 365.591 521.716 365.539 521.607C365.488 521.499 365.4 521.414 365.292 521.37Z" fill="#263238"/>
<path d="M286.129 493.569C278.459 490.005 273.131 502.408 280.815 505.972C288.499 509.536 293.813 497.133 286.129 493.569Z" fill="#263238"/>
<path d="M367.879 492.043C365.702 487.453 360.1 488.323 356.635 490.433C350.745 494.145 345.899 499.406 342.582 505.687C342.567 505.715 342.557 505.747 342.555 505.78C342.553 505.812 342.558 505.845 342.57 505.876C342.582 505.906 342.6 505.933 342.624 505.955C342.647 505.976 342.675 505.992 342.706 506.001C342.637 506.571 343.021 507.27 343.692 507.141C350.061 505.915 357.018 505.431 362.867 502.209C366.181 500.327 369.865 496.392 367.879 492.043ZM352.978 503.235C349.855 503.905 346.732 504.433 343.637 505.231C346.29 502.175 349.092 499.262 352.033 496.506C353.471 495.187 354.995 493.972 356.594 492.87C359.086 491.217 368.345 488.422 365.688 496.463C364.168 500.911 356.648 502.422 352.923 503.235H352.978Z" fill="#263238"/>
<path d="M324.438 500.398C329.916 504.119 336.86 505.231 343.106 507.013C343.749 507.198 344.201 506.543 344.174 505.958C344.204 505.954 344.233 505.943 344.259 505.926C344.284 505.908 344.305 505.884 344.32 505.856C344.335 505.828 344.343 505.797 344.344 505.765C344.344 505.733 344.338 505.702 344.325 505.673C341.538 499.117 337.146 493.439 331.587 489.206C328.3 486.811 322.78 485.428 320.247 489.82C317.85 493.968 321.205 498.217 324.438 500.398ZM322.055 494.424C320.069 486.17 329.067 489.791 331.423 491.659C332.925 492.896 334.343 494.239 335.669 495.679C338.371 498.686 340.921 501.836 343.311 505.117C340.298 504.048 337.216 503.249 334.162 502.266C330.533 501.196 323.15 498.972 322.055 494.424Z" fill="#263238"/>
<path d="M287.359 453.151L364.058 489.221C364.058 489.221 455.289 306.963 457.672 251.134C459.699 203.659 427.951 185.339 325.298 216.048L300.152 216.376V234.439C311.191 235.95 340.638 240.769 340.638 240.769C362.059 249.18 368.962 252.659 368.619 253.386C315.122 365.757 287.359 453.151 287.359 453.151Z" fill="#263238"/>
<path d="M381.111 233.398C378.015 237.675 375.153 242.152 372.413 246.714C355.978 239.087 338.022 234.681 320.19 232.386C315.149 231.749 310.086 231.274 305.001 230.96C304.795 230.96 304.809 231.288 305.001 231.303C323.046 232.618 340.879 236.149 358.128 241.824C362.908 243.364 367.579 245.132 372.29 246.885C369.003 252.36 365.894 257.977 362.922 263.622C357.365 274.186 352.363 285.056 347.938 296.185C345.473 302.344 343.076 308.545 340.953 314.847C340.953 315.032 341.186 315.146 341.254 314.975C350.623 293.238 360.845 271.967 371.92 251.162C375.043 245.288 378.303 239.5 381.357 233.584C381.467 233.427 381.22 233.17 381.111 233.398Z" fill="#455A64"/>
<path d="M365.675 469.931C361.196 468.121 356.868 465.854 352.499 463.801L339.337 457.656C330.571 453.579 300.275 440.548 297.769 439.892C297.604 439.892 297.522 440.106 297.645 440.192C299.59 441.518 319.135 450.571 323.559 452.538C332.406 456.487 341.364 460.137 350.253 463.944C352.8 465.013 355.361 466.025 357.922 467.066C360.484 468.106 363.072 469.062 365.579 470.245C365.729 470.259 365.825 469.988 365.675 469.931Z" fill="#455A64"/>
<path d="M380.729 241.624C374.689 253.586 369.539 266.103 364.294 278.464C359.048 290.824 353.98 303.142 349.036 315.531C339.202 340.3 330.044 365.344 321.561 390.664C316.74 404.921 312.234 419.406 307.865 433.862C307.797 434.076 308.112 434.147 308.18 433.947C316.302 408.371 325.095 383.022 334.271 357.845C343.448 332.668 353.172 307.832 363.472 283.183C366.366 276.263 369.302 269.368 372.279 262.496C375.264 255.61 378.373 248.767 381.167 241.81C381.25 241.582 380.88 241.339 380.729 241.624Z" fill="#455A64"/>
<path d="M251.574 214.907C253.259 216.761 359.774 219.298 360.322 218.6C361.774 216.689 347.995 146.318 336.888 119.416C322.685 84.9004 314.59 81.8352 309.81 79.7822C303.702 77.159 292.581 77.772 289.896 78.9411C286.842 80.2384 273.625 95.6784 269.653 108.153C261.695 133.231 250.095 213.282 251.574 214.907Z" fill="#455A64"/>
<path d="M318.493 85.9268H282.815C283.472 85.1284 284.184 84.3728 284.732 83.6885H316.233C316.932 84.3158 317.685 85.0571 318.493 85.9268ZM322.986 91.7721H278.363L276.843 93.9961H324.424C323.931 93.2167 323.451 92.4754 322.986 91.7721ZM327.793 99.8413H273.378C272.967 100.583 272.584 101.267 272.214 102.065H329.012L327.793 99.8413ZM331.833 107.925H269.735L269.653 108.153C269.447 108.78 269.255 109.45 269.05 110.149H332.861C332.518 109.379 332.176 108.652 331.833 107.925ZM335.449 115.994H267.475C267.297 116.707 267.105 117.42 266.927 118.218H336.381L335.449 115.994ZM338.682 124.063H265.571C265.42 124.805 265.256 125.489 265.092 126.302H339.476C339.216 125.532 338.942 124.819 338.682 124.063ZM341.421 132.147H263.9C263.736 132.888 263.585 133.63 263.448 134.371H342.119L341.421 132.147ZM343.845 140.216H262.298C262.161 140.958 262.01 141.642 261.873 142.44H344.475C344.256 141.685 344.051 140.943 343.831 140.216H343.845ZM346.078 148.3H260.805C260.668 149.041 260.545 149.726 260.408 150.524H346.694C346.461 149.783 346.269 149.056 346.064 148.3H346.078ZM348.173 156.369H259.394C259.257 157.111 259.134 157.795 259.011 158.593H348.707C348.529 157.852 348.351 157.111 348.159 156.369H348.173ZM350.159 164.438H258.038L257.668 166.677H350.666C350.488 165.935 350.31 165.18 350.145 164.438H350.159ZM352.035 172.522H256.737C256.627 173.263 256.504 173.948 256.395 174.746H352.515L352.035 172.522ZM353.816 180.591H255.573L255.244 182.815H354.35C354.186 182.074 353.967 181.333 353.802 180.591H353.816ZM355.528 188.661H254.326C254.217 189.416 254.121 190.172 254.011 190.899H355.966L355.528 188.661ZM357.144 196.744H253.231C253.121 197.514 253.025 198.255 252.943 198.968H357.541C357.418 198.241 357.267 197.528 357.13 196.744H357.144ZM358.637 204.813H252.217C252.135 205.598 252.053 206.353 251.984 207.052H359.007C358.884 206.339 358.76 205.583 358.623 204.813H358.637ZM360.007 212.897H251.464C251.362 213.567 251.395 214.251 251.56 214.907C251.757 215.025 251.977 215.098 252.204 215.121H360.212C360.144 214.465 360.048 213.724 359.938 212.897H360.007Z" fill="#263238"/>
<path d="M327.463 89.1774C373.4 125.104 413.119 174.974 409.312 190.771C405.271 207.465 373.524 226.142 345.474 229.948C339.735 230.732 321.971 186.893 327.847 184.883C332.435 183.314 353.28 177.141 355.773 174.176C357.499 172.109 325.162 124.748 314.684 100.041C303.618 74.0795 315.164 79.4971 327.463 89.1774Z" fill="#AD6359"/>
<path d="M339.695 183.5C339.695 183.5 322.163 185.325 310.754 187.092C304.386 188.076 293.62 190.771 289.265 193.722C282.746 198.127 258.175 220.909 263.352 227.225C268.036 232.928 275.117 223.889 275.117 223.889C275.117 223.889 266.488 233.028 272.816 237.219C279.143 241.411 287.306 228.665 287.306 228.665C287.306 228.665 277.5 237.704 284.663 241.496C290.881 244.789 301.756 231.189 301.756 231.189C301.756 231.189 290.457 239.514 296.51 243.535C303.194 247.983 321.958 229.734 321.958 229.734C336.955 231.474 346.2 230.404 356.774 227.325C358.705 226.812 339.695 183.5 339.695 183.5Z" fill="#AD6359"/>
<path d="M284.677 231.744C285.348 230.775 286.047 229.82 286.732 228.893C288.025 226.985 289.425 225.157 290.923 223.419C292.416 221.75 293.977 220.154 295.579 218.6C297.182 217.046 299.154 215.506 300.798 213.824C300.808 213.804 300.823 213.788 300.841 213.776C300.859 213.763 300.88 213.756 300.901 213.753C300.922 213.751 300.944 213.753 300.964 213.761C300.984 213.769 301.002 213.781 301.017 213.798C301.031 213.814 301.042 213.834 301.048 213.855C301.054 213.877 301.055 213.899 301.051 213.921C301.047 213.943 301.038 213.964 301.025 213.982C301.012 213.999 300.995 214.014 300.976 214.023C299.32 215.664 297.756 217.401 296.292 219.227C294.799 220.966 293.333 222.72 291.854 224.474C290.375 226.227 288.882 227.795 287.389 229.463C286.649 230.305 286.019 231.174 285.239 232.03C284.621 232.9 283.933 233.716 283.184 234.467C283.166 234.476 283.146 234.479 283.126 234.476C283.106 234.473 283.087 234.464 283.071 234.451C283.056 234.438 283.044 234.42 283.037 234.401C283.031 234.381 283.029 234.36 283.034 234.339C283.491 233.416 284.042 232.546 284.677 231.744Z" fill="#263238"/>
<path d="M273.375 225.828C275.67 222.206 278.2 218.753 280.949 215.492C283.742 212.251 286.839 209.309 290.194 206.71C290.317 206.624 290.468 206.795 290.372 206.909C287.633 210.16 284.743 213.353 281.908 216.561C280.538 218.129 274.443 225.443 273.69 226.127C273.512 226.298 273.265 226.042 273.375 225.828Z" fill="#263238"/>
<path d="M295.167 237.633C297.389 234.27 299.823 231.064 302.454 228.038C305.405 225.236 308.55 222.662 311.863 220.339C311.986 220.339 312.151 220.425 312.041 220.539C309.096 223.39 306.124 226.127 303.33 229.093C301.961 230.518 296.838 236.649 295.414 237.918C295.291 237.975 295.085 237.789 295.167 237.633Z" fill="#263238"/>
<path d="M378.537 133.373L343.557 156.982C343.557 156.982 317.603 115.153 310.878 95.3363C304.153 75.5195 311.987 75.4767 330.354 89.8332C348.721 104.19 378.537 133.373 378.537 133.373Z" fill="#455A64"/>
<path d="M325.041 85.9268H308.606C308.532 85.1826 308.532 84.4326 308.606 83.6885H321.768C322.685 84.3443 323.863 85.0999 325.041 85.9268ZM332.738 91.7721H309.756C309.948 92.4849 310.167 93.1977 310.427 93.9961H335.464L332.738 91.7721ZM342.326 99.8413H312.564C312.852 100.554 313.167 101.267 313.495 102.065H344.86C344.011 101.31 343.23 100.583 342.312 99.8413H342.326ZM351.434 107.925H316.166L317.234 110.149H353.872L351.434 107.925ZM360.241 115.994H320.152C320.535 116.721 320.919 117.42 321.316 118.218H362.596L360.241 115.994ZM368.828 124.063H324.425L325.644 126.302H371.156L368.828 124.063ZM377.251 132.147H328.904C329.328 132.903 329.739 133.644 330.164 134.371H377.128L378.498 133.416L377.251 132.147ZM333.533 140.216L334.82 142.44H365.144L368.431 140.216H333.533ZM338.285 148.3L339.655 150.524H353.242L356.543 148.3H338.285ZM343.175 156.369L343.572 157.025L344.545 156.369H343.175Z" fill="#263238"/>
<path d="M370.62 128.198C357.28 139.247 344.104 146.732 341.488 148.656C341.365 148.742 341.255 148.528 341.378 148.443C344.035 146.76 358.293 135.84 370.483 127.97C370.62 127.87 370.716 128.098 370.62 128.198Z" fill="#263238"/>
<path d="M345.801 155.414C345.069 155.744 344.36 156.125 343.678 156.555C339.788 149.569 335.597 142.497 331.639 135.54L325.832 125.332C323.832 121.782 321.997 118.076 319.806 114.654C319.8 114.644 319.793 114.635 319.784 114.627C319.775 114.62 319.765 114.614 319.755 114.611C319.744 114.608 319.732 114.607 319.721 114.608C319.71 114.609 319.699 114.613 319.689 114.618C319.679 114.624 319.671 114.632 319.664 114.641C319.656 114.65 319.651 114.66 319.648 114.672C319.645 114.683 319.644 114.695 319.645 114.706C319.646 114.718 319.65 114.729 319.655 114.74C321.081 118.12 322.672 121.422 324.421 124.634C324.065 124.149 323.723 123.636 323.339 123.208C322.476 122.139 321.627 121.07 320.86 119.929C320.737 119.758 320.449 119.929 320.573 120.1C321.312 121.184 321.942 122.31 322.641 123.45C323.339 124.591 324.01 125.674 324.764 126.772C325.517 127.87 326.257 128.825 327.037 129.809C327.121 129.938 327.212 130.062 327.311 130.18C328.38 132.218 329.42 134.257 330.53 136.267C334.42 143.296 343.254 157.453 343.377 157.41C344.267 156.901 345.115 156.314 345.911 155.656C345.965 155.528 345.965 155.385 345.801 155.414Z" fill="#263238"/>
<path d="M269.913 87.7517C232.632 107.911 197.625 132.432 191.05 149.469C186.941 160.19 192.023 179.622 196.173 191.298C198.2 197.001 249.766 174.846 245.479 170.127C234.878 158.465 233.153 153.789 234.317 151.422C235.043 149.911 275.844 113.043 287.294 96.4198C303.264 73.2669 286.225 78.9268 269.913 87.7517Z" fill="#AD6359"/>
<path d="M264.967 222.777C260.091 225.628 254.366 212.526 254.366 212.526C254.188 215.028 253.17 217.385 251.49 219.184C248.395 222.207 242.492 218.471 242.492 218.471C241.779 221.022 240.348 223.292 238.383 224.987C235.137 227.567 228.659 224.702 228.659 224.702C226.763 226.67 224.249 227.86 221.578 228.052C214.428 228.28 208.361 218.828 204.43 212.869C200.499 206.909 194.76 186.137 193.281 182.302L229.864 155.77C229.864 155.77 254.764 177.327 258.421 185.025C261.489 191.512 272.404 218.429 264.967 222.777Z" fill="#AD6359"/>
<path d="M254.449 212.341C252.833 204.657 249.313 197.357 245.985 190.4C245.902 190.243 245.669 190.4 245.752 190.514C249.217 197.429 250.984 205.469 254.189 212.498C254.215 212.512 254.245 212.52 254.275 212.519C254.305 212.518 254.334 212.51 254.36 212.494C254.386 212.478 254.408 212.456 254.423 212.429C254.439 212.403 254.448 212.372 254.449 212.341Z" fill="#263238"/>
<path d="M242.888 218.001C242.339 216.29 241.579 214.661 240.628 213.154C239.71 211.5 238.779 209.86 237.82 208.221C235.889 204.97 233.889 201.763 231.794 198.612C231.698 198.469 231.479 198.612 231.561 198.74C233.479 201.991 235.355 205.27 237.135 208.592C238.026 210.26 238.902 211.942 239.779 213.61C240.497 215.252 241.389 216.806 242.436 218.243C242.474 218.291 242.526 218.324 242.584 218.336C242.642 218.348 242.703 218.34 242.756 218.311C242.808 218.283 242.85 218.237 242.874 218.18C242.898 218.124 242.903 218.061 242.888 218.001Z" fill="#263238"/>
<path d="M228.574 224.616C228.063 223.069 227.303 221.623 226.328 220.339C225.411 218.913 224.52 217.402 223.589 215.934C221.795 212.983 220.014 210.032 218.33 207.023C218.309 207.001 218.282 206.986 218.253 206.981C218.223 206.976 218.193 206.981 218.167 206.996C218.14 207.011 218.119 207.034 218.107 207.062C218.094 207.09 218.091 207.121 218.097 207.152C219.795 210.217 221.452 213.311 223.178 216.361C224.027 217.787 224.876 219.355 225.739 220.852C226.397 222.291 227.297 223.594 228.396 224.702C228.506 224.702 228.602 224.616 228.574 224.616Z" fill="#263238"/>
<path d="M216.059 117.962L243.355 145.834C243.355 145.834 279.253 112.744 289.648 94.7233C300.044 76.7028 292.388 75.0205 271.611 85.2853C250.833 95.5502 216.059 117.962 216.059 117.962Z" fill="#529799"/>
<path d="M216.059 117.962L243.355 145.834C243.355 145.834 279.253 112.744 289.648 94.7233C300.044 76.7028 292.388 75.0205 271.611 85.2853C250.833 95.5502 216.059 117.962 216.059 117.962Z" fill="#455A64"/>
<path d="M294.196 83.6885C294.105 84.4489 293.945 85.1985 293.716 85.9268H270.337L271.611 85.2852C272.761 84.715 273.87 84.1875 274.939 83.6885H294.196ZM259.393 91.772L255.449 93.9961H290.059C290.498 93.2262 290.909 92.4706 291.278 91.772H259.393ZM245.423 99.8413L241.684 102.008H284.704C285.266 101.253 285.8 100.583 286.32 99.7843L245.423 99.8413ZM232.042 107.925L228.467 110.149H278.171C278.801 109.408 279.431 108.723 280.034 107.925H232.042ZM219.14 115.994L216.059 117.962L216.305 118.218H270.981L273.008 115.994H219.14ZM222.03 124.063L224.222 126.302H263.324L265.475 124.063H222.03ZM229.947 132.147L232.124 134.371H255.298L257.558 132.147H229.947ZM237.849 140.216L240.027 142.44H246.971L249.299 140.216H237.849Z" fill="#263238"/>
<path d="M249.023 138.548C236.423 127.4 227.109 115.809 224.945 113.585C224.85 113.471 225.028 113.314 225.124 113.428C227.151 115.738 239.792 127.813 249.229 138.377C249.338 138.506 249.147 138.662 249.023 138.548Z" fill="#263238"/>
<path d="M273.172 101.495C271.803 104.546 270.433 107.583 269.269 110.719C269.269 110.505 269.269 110.306 269.269 110.092C269.416 108.173 269.696 106.267 270.104 104.389C270.104 104.175 269.844 104.076 269.789 104.29C269.378 106.186 269.009 108.11 268.721 109.992C268.57 110.919 268.488 111.846 268.42 112.772C268.426 112.886 268.426 113 268.42 113.114C268.412 113.152 268.412 113.191 268.42 113.228C267.05 117.406 266.256 121.683 265.119 125.903C265.113 125.923 265.112 125.945 265.115 125.966C265.117 125.987 265.124 126.008 265.134 126.026C265.144 126.045 265.158 126.061 265.174 126.074C265.19 126.087 265.209 126.097 265.228 126.102C265.248 126.108 265.269 126.109 265.289 126.107C265.309 126.104 265.329 126.097 265.347 126.087C265.365 126.076 265.38 126.062 265.393 126.045C265.405 126.028 265.415 126.009 265.42 125.988C266.543 121.854 268.159 117.848 269.529 113.813C270.899 109.778 272.076 105.658 273.419 101.595C273.46 101.467 273.227 101.353 273.172 101.495Z" fill="#263238"/>
<path d="M292.374 98.1734C298.373 99.8842 309.097 90.6743 313.466 83.0327C313.767 82.5053 313.178 76.8453 312.781 69.9308C312.548 65.6538 312.384 61.0489 312.535 56.7719C312.535 55.888 286.512 62.3035 286.512 62.3035C287.795 67.7142 288.439 73.268 288.429 78.8413C288.392 79.427 288.31 80.0087 288.183 80.5806C288.174 80.6802 288.174 80.7804 288.183 80.88C287.498 84.1875 286.58 96.5053 292.374 98.1734Z" fill="#AD6359"/>
<path d="M310.944 56.8147C309.492 63.943 304.548 81.3362 290.769 81.0511C289.887 81.0559 289.007 80.9748 288.14 80.8087C288.13 80.7092 288.13 80.6089 288.14 80.5093C288.267 79.9374 288.349 79.3558 288.386 78.77C288.395 73.1921 287.751 67.6337 286.469 62.218C286.469 62.218 305.315 57.6701 310.944 56.8147Z" fill="#263238"/>
<path d="M284.937 41.7738C285.06 48.3461 280.663 53.778 275.116 53.8778C269.57 53.9775 264.981 48.7596 264.858 42.173C264.735 35.5864 269.131 30.1688 274.678 30.0548C280.225 29.9407 284.813 35.1872 284.937 41.7738Z" fill="#529799"/>
<path d="M277.265 55.6221C283.436 55.4988 288.329 49.4638 288.194 42.1425C288.059 34.8213 282.947 28.9862 276.776 29.1096C270.604 29.2329 265.711 35.2679 265.846 42.5892C265.981 49.9104 271.093 55.7455 277.265 55.6221Z" fill="#C7C7C7"/>
<path d="M311.206 21.2156C315.465 30.1403 315.054 58.112 309.603 65.2831C301.7 75.6762 286.594 79.1549 277.554 68.7617C268.802 58.668 269.966 22.2278 276.267 15.4844C285.525 5.54748 304.878 8.04241 311.206 21.2156Z" fill="#AD6359"/>
<path d="M290.033 45.5233C290.033 45.5233 290.17 45.6089 290.17 45.6944C290.088 47.5763 290.307 49.7433 291.937 50.3849V50.4989C289.937 50.1853 289.677 47.2911 290.033 45.5233Z" fill="#263238"/>
<path d="M291.673 43.5559C294.576 43.3563 294.741 49.4439 292.042 49.6292C289.344 49.8146 289.221 43.7412 291.673 43.5559Z" fill="#263238"/>
<path d="M279.91 45.8797C279.91 45.8797 279.759 45.9795 279.773 46.0508C279.882 47.9327 279.69 50.0997 278.074 50.7841C278.074 50.7841 278.074 50.8981 278.074 50.8839C280.088 50.5274 280.293 47.6476 279.91 45.8797Z" fill="#263238"/>
<path d="M278.24 43.955C275.323 43.8125 275.254 49.9001 277.952 50.0284C280.651 50.1567 280.678 44.0834 278.24 43.955Z" fill="#263238"/>
<path d="M294.239 38.6801C293.439 38.6208 292.643 38.5113 291.856 38.3522C291 38.3532 290.168 38.0628 289.486 37.5253C289.304 37.3158 289.195 37.0493 289.175 36.7679C289.155 36.4864 289.226 36.2061 289.377 35.9713C289.741 35.5482 290.207 35.2339 290.727 35.061C291.247 34.8881 291.802 34.8627 292.335 34.9876C293.454 35.0598 294.506 35.569 295.28 36.4133C295.426 36.6212 295.515 36.8665 295.539 37.1232C295.562 37.3799 295.517 37.6382 295.411 37.8708C295.304 38.1034 295.138 38.3015 294.932 38.444C294.726 38.5865 294.486 38.6681 294.239 38.6801Z" fill="#263238"/>
<path d="M275.432 39.6068C276.24 39.4357 276.953 39.1506 277.733 38.9082C278.577 38.7768 279.357 38.3612 279.952 37.7249C280.104 37.4879 280.175 37.2052 280.155 36.9213C280.135 36.6374 280.025 36.3684 279.842 36.1567C279.421 35.7942 278.914 35.5566 278.374 35.4688C277.834 35.381 277.282 35.4462 276.775 35.6577C275.668 35.898 274.689 36.5652 274.035 37.5253C273.917 37.7572 273.862 38.0187 273.878 38.2809C273.893 38.5431 273.977 38.7958 274.122 39.0111C274.266 39.2264 274.465 39.396 274.696 39.5011C274.928 39.6062 275.182 39.6428 275.432 39.6068Z" fill="#263238"/>
<path d="M293.538 62.945C293.114 63.3869 292.689 64.0142 292.045 64.0855C291.372 64.0916 290.705 63.9508 290.087 63.6721C290.087 63.6721 289.963 63.6721 290.004 63.7719C290.274 64.1341 290.633 64.414 291.043 64.582C291.452 64.7501 291.898 64.8002 292.333 64.7271C292.698 64.6142 293.022 64.3915 293.266 64.0871C293.51 63.7828 293.662 63.4102 293.702 63.0163C293.73 62.9022 293.593 62.8737 293.538 62.945Z" fill="#263238"/>
<path d="M291.47 57.3564C291.032 58.1153 290.449 58.7718 289.756 59.2846C289.063 59.7974 288.276 60.1553 287.443 60.336C286.715 60.5002 285.968 60.5578 285.224 60.5071C285.083 60.5219 284.941 60.5219 284.8 60.5071H284.403C284.305 60.4915 284.216 60.4421 284.149 60.3671C284.082 60.2921 284.041 60.1958 284.033 60.0937C284.026 60.0273 284.026 59.9604 284.033 59.8941V59.723C283.964 58.2973 284.033 56.0733 284.033 56.0733C283.54 56.3442 280.979 57.6415 280.992 56.8859C281.184 50.5987 281.389 43.6129 282.855 37.397C282.855 37.3516 282.872 37.3081 282.903 37.276C282.934 37.2439 282.976 37.2259 283.019 37.2259C283.063 37.2259 283.105 37.2439 283.135 37.276C283.166 37.3081 283.184 37.3516 283.184 37.397C283.184 43.4418 282.266 49.4582 282.211 55.5315C283.123 55.0547 284.096 54.7186 285.101 54.5336C285.293 54.5336 284.882 58.8106 284.964 59.4379C286.11 59.5253 287.261 59.3708 288.349 58.9837C289.436 58.5967 290.437 57.9849 291.292 57.1853C291.429 57.0855 291.579 57.1996 291.47 57.3564Z" fill="#263238"/>
<path d="M286.031 59.7373C286.822 60.7517 287.85 61.5372 289.017 62.0183C289.668 62.2336 290.366 62.2336 291.017 62.0183C292.455 61.5764 292.455 60.1935 292.153 59.0244C291.987 58.4 291.752 57.7974 291.455 57.2281C289.953 58.6499 288.051 59.5299 286.031 59.7373Z" fill="#263238"/>
<path d="M289.02 62.0897C289.67 62.3049 290.369 62.3049 291.019 62.0897C292.457 61.6477 292.457 60.2648 292.156 59.0957C291.385 59.1508 290.654 59.477 290.084 60.021C289.514 60.565 289.139 61.2944 289.02 62.0897Z" fill="#FF98B9"/>
<path opacity="0.2" d="M314.067 41.061C312.314 40.7188 308.26 34.4031 306.52 31.8939C304.781 29.3847 304.096 16.126 304 13.1321C307.087 15.0642 309.585 17.8669 311.204 21.2156C313.094 25.2075 314.067 33.0059 314.067 41.061Z" fill="#263238"/>
<path d="M281.883 23.4397C282.898 24.6607 284.195 25.5922 285.652 26.146C287.109 26.6998 288.678 26.8577 290.21 26.6047C291.778 26.3432 293.255 25.667 294.499 24.641C295.744 23.6151 296.715 22.2736 297.318 20.7452C297.318 20.6596 297.483 20.7452 297.455 20.7452C296.951 22.4032 296.021 23.8863 294.765 25.0345C293.51 26.1827 291.978 26.9523 290.333 27.2605C288.704 27.4753 287.05 27.2406 285.535 26.58C284.021 25.9195 282.7 24.8562 281.705 23.4967C281.595 23.4682 281.787 23.3256 281.883 23.4397Z" fill="#263238"/>
<path d="M291.182 0.00166222C296.455 0.101459 301.304 3.10963 303.262 6.83063C304.343 8.94927 304.705 11.3857 304.289 13.7451C304.289 13.8449 304.084 13.8307 304.098 13.7451C304.193 11.6563 303.747 9.57929 302.808 7.73098C301.868 5.88268 300.469 4.33095 298.756 3.23794C296.883 1.9695 294.753 1.17144 292.533 0.906705C290.313 0.641974 288.064 0.917818 285.964 1.71247C283.919 2.45121 282.188 3.91463 281.074 5.84692C280.978 6.04652 280.581 5.84691 280.663 5.70435C282.06 2.21145 286.388 -0.0696213 291.182 0.00166222Z" fill="#263238"/>
<path d="M260.61 12.0913C261.452 9.37221 263.195 7.05293 265.527 5.54751C268.746 3.45178 272.376 3.73691 276.032 4.12184C276.142 4.12184 276.128 4.29292 276.032 4.27867C272.937 3.97928 269.787 3.86522 266.952 5.40495C264.603 6.64877 262.743 8.70551 261.692 11.2217C260.684 13.8047 260.604 16.6795 261.467 19.319C262.33 21.9585 264.078 24.1857 266.39 25.5925C267.741 26.3689 269.23 26.8491 270.766 27.0036C272.302 27.1581 273.852 26.9835 275.32 26.4906C275.43 26.4906 275.512 26.6189 275.402 26.676C273.417 27.4346 271.268 27.6016 269.196 27.1583C267.124 26.715 265.212 25.6789 263.676 24.1665C262.139 22.6541 261.038 20.7254 260.496 18.5972C259.955 16.4691 259.994 14.2259 260.61 12.1199V12.0913Z" fill="#263238"/>
<path d="M312.985 26.6617C312.985 26.6617 317.888 16.796 313.656 11.1504C311.245 7.95688 303.383 8.47013 303.383 8.47013C301.25 5.23481 297.968 3.01429 294.262 2.29697C287.66 0.871299 279.867 4.89169 279.867 4.89169C279.867 4.89169 273.58 1.22772 267.76 4.77765C259.638 9.72472 260.788 22.6698 269.047 26.7472C274.854 29.5986 282.647 24.1953 282.647 24.1953C283.401 24.2951 291.166 29.0568 296.932 21.8287C296.932 21.8287 301.712 26.1057 305.945 23.0405C306.62 24.3228 307.657 25.358 308.916 26.0057C310.176 26.6535 311.596 26.8825 312.985 26.6617Z" fill="#263238"/>
<path d="M309.179 44.3115C309.179 44.3115 313.849 34.6027 317.999 36.2137C322.149 37.8247 319.492 51.2688 315.26 53.7067C314.734 54.059 314.145 54.2968 313.529 54.4058C312.912 54.5148 312.281 54.4927 311.673 54.3408C311.065 54.1889 310.493 53.9104 309.991 53.5221C309.49 53.1338 309.069 52.6437 308.754 52.0815L309.179 44.3115Z" fill="#AD6359"/>
<path d="M317.203 40.0487C317.272 40.0487 317.299 40.1343 317.203 40.177C314.231 41.9876 312.999 45.2952 312.273 48.6313C312.411 48.2744 312.621 47.9529 312.889 47.6887C313.158 47.4244 313.478 47.2238 313.828 47.1006C314.178 46.9773 314.55 46.9344 314.917 46.9746C315.285 47.0149 315.639 47.1375 315.957 47.3339C316.053 47.3339 315.957 47.5335 315.957 47.5192C315.383 47.4132 314.792 47.4931 314.263 47.748C313.734 48.003 313.292 48.4207 312.999 48.9449C312.525 49.8494 312.148 50.8057 311.876 51.7962C311.766 52.1242 311.232 52.0386 311.3 51.6822C310.574 47.4765 312.875 41.1322 317.203 40.0487Z" fill="#263238"/>
<path d="M318.134 35.957C318.134 35.957 319.408 21.6148 315.573 13.5883C311.286 4.64931 292.851 -4.24689 279.867 4.89166C279.867 4.89166 300.74 1.58411 310.095 14.073C314.039 19.3337 313.519 36.2137 313.519 36.2137L318.134 35.957Z" fill="#C7C7C7"/>
<path d="M327.382 43.7031C327.634 36.3852 322.839 30.2657 316.671 30.0348C310.502 29.8038 305.297 35.5489 305.044 42.8667C304.791 50.1846 309.586 56.3041 315.755 56.5351C321.923 56.766 327.129 51.021 327.382 43.7031Z" fill="#C7C7C7"/>
<path d="M308.302 42.5721C308.069 49.1445 312.411 54.6476 317.889 54.8472C323.368 55.0468 328.12 49.9001 328.34 43.3277C328.559 36.7554 324.231 31.2523 318.752 31.0385C313.274 30.8246 308.521 35.9998 308.302 42.5721Z" fill="#529799"/>
<path d="M316.586 85.0144C313.771 88.6607 310.763 92.14 307.574 95.4361C304.492 98.43 300.726 101.139 296.617 101.566C292.508 101.994 288.399 101.167 286.879 95.9779C285.646 91.8577 285.811 87.6091 286.468 82.3057C286.468 82.2641 286.452 82.2242 286.424 82.1948C286.396 82.1654 286.358 82.1488 286.318 82.1488C286.278 82.1488 286.239 82.1654 286.211 82.1948C286.183 82.2242 286.167 82.2641 286.167 82.3057C285.29 89.1204 284.414 99.6846 290.372 101.98C297.055 104.56 303.547 100.925 308.177 96.1062C311.406 92.7944 314.281 89.128 316.751 85.1713C316.751 85.043 316.641 84.9004 316.586 85.0144Z" fill="#263238"/>
<path d="M350.91 241.097H229.109V246.785H350.91V241.097Z" fill="#C7C7C7"/>
<path d="M324.832 241.097L329.01 246.785H229.109V241.097H324.832Z" fill="#A6A6A6"/>
<path d="M319.627 246.785H200.922L191.047 162.87H309.752L319.627 246.785Z" fill="#C7C7C7"/>
<path d="M262.569 204.828C262.587 205.81 262.417 206.786 262.067 207.699C261.718 208.612 261.197 209.442 260.534 210.142C259.872 210.842 259.082 211.397 258.211 211.775C257.34 212.153 256.404 212.345 255.461 212.341C253.537 212.334 251.692 211.544 250.32 210.14C248.949 208.736 248.159 206.83 248.119 204.828C248.096 203.844 248.262 202.866 248.608 201.951C248.954 201.036 249.474 200.203 250.136 199.5C250.797 198.798 251.588 198.242 252.46 197.864C253.333 197.486 254.269 197.294 255.214 197.3C257.14 197.311 258.987 198.103 260.36 199.509C261.734 200.915 262.526 202.823 262.569 204.828Z" fill="white"/>
<path d="M592.816 257.877H465.824V274.814H592.816V257.877Z" fill="#455A64"/>
<path d="M589.227 274.814H469.398V280.103H589.227V274.814Z" fill="#37474F"/>
<path d="M572.121 403.595H486.52V408.884H572.121V403.595Z" fill="#455A64"/>
<path d="M483.74 481.351H477.398V280.103H494.697L483.74 481.351Z" fill="#455A64"/>
<path d="M494.697 280.103L494.053 292.007H477.398V280.103H494.697Z" fill="#263238"/>
<path d="M574.887 481.351H581.242V280.103H563.93L574.887 481.351Z" fill="#455A64"/>
<path d="M563.93 280.103L564.587 292.007H581.228V280.103H563.93Z" fill="#263238"/>
</svg>
